<?xml version="1.0" encoding="UTF-8"?>
<svg width="750px" height="346px" viewBox="0 0 750 346" version="1.1" xmlns="http://www.w3.org/2000/svg" xmlns:xlink="http://www.w3.org/1999/xlink">
    <!-- Generator: Sketch 41.2 (35397) - http://www.bohemiancoding.com/sketch -->
    <title>delivery</title>
    <desc>Created with Sketch.</desc>
    <defs></defs>
    <g id="Page-1" stroke="none" stroke-width="1" fill="none" fill-rule="evenodd">
        <g id="delivery" fill="#5856D6">
            <rect id="ground" x="0" y="336" width="750" height="10"></rect>
            <path d="M259,218 L474,218 C507.137085,218 534,191.137085 534,158 C534,124.862915 507.137085,98 474,98 C470.001833,98 466.059531,98.3896634 462.209048,99.1562138 C457.545985,100.084532 452.874031,97.6011901 451.034949,93.2167046 C437.119797,60.0421249 404.595763,38 368,38 C320.043991,38 280.570904,75.609626 278.120513,123.297246 C277.812608,129.28946 272.333868,133.663416 266.422272,132.636545 C263.990985,132.214219 261.511386,132 259,132 C235.251756,132 216,151.251756 216,175 C216,198.748244 235.251756,218 259,218 Z M268.133689,122.784081 L269.845105,112.931616 C276.461698,64.7924234 317.934183,28 368,28 C409.526369,28 445.140842,53.3118395 460.256573,89.348674 C464.7005,88.463981 469.296066,88 474,88 C512.659932,88 544,119.340068 544,158 C544,196.659932 512.659932,228 474,228 L259,228 C229.728908,228 206,204.271092 206,175 C206,146.009167 229.276695,122.454897 258.160765,122.00651 C258.156028,122.094617 268.133689,122.784081 268.133689,122.784081 Z M337.535534,141.231153 C335.582912,139.278532 332.417088,139.278532 330.464466,141.231153 C328.511845,143.183775 328.511845,146.3496 330.464466,148.302221 L354.252049,172.089804 C356.20467,174.042425 359.370495,174.042425 361.323117,172.089804 L412.089804,121.323117 C414.042425,119.370495 414.042425,116.20467 412.089804,114.252049 C410.137182,112.299428 406.971358,112.299428 405.018736,114.252049 L357.787583,161.483202 L337.535534,141.231153 Z" class="doneCloud second"></path>
            <g class="movingElements">
                <path d="M448.964,157.357431 L442.234,76.7520306 C442.234,57.5160306 426.606,41.8660306 407.4,41.8660306 L358.634,41.8660306 C354.788,41.8660306 351.666,44.9920306 351.666,48.8420306 C351.666,52.6940306 354.788,55.8200306 358.634,55.8200306 L407.4,55.8200306 C418.728,55.8200306 428.3,65.4080306 428.32,77.3320306 L434.66,153.505831 L411.706,153.505831 L420.602,135.692231 C422.322,132.245231 420.922,128.058831 417.48,126.328431 C414.032,124.604831 409.86,126.007431 408.132,129.454231 L396.128,153.505831 L358.634,153.505831 C354.788,153.505831 351.666,156.631831 351.666,160.483431 C351.666,164.335031 354.788,167.461031 358.634,167.461031 L439.35,167.461031 L458.208,186.349231 C462.178,190.326431 463.12,199.474031 463.134,202.348631 L463.134,279.101831 L448.642,279.101831 C437.674,279.101831 438.646,293.905831 448.642,293.056831 L470.1,293.056831 C473.946,293.056831 477.066,289.930831 477.066,286.079231 L477.066,202.348631 C477.066,200.625231 476.816,185.246831 468.058,176.483031 L448.964,157.357431 Z M107.8334,3.05741071e-05 C88.6262,3.05741071e-05 73,15.6500306 73,34.8880306 C73,35.2360306 73.0278,35.5780306 73.0766,35.9200306 L99.8252,215.175631 C100.3158,218.463031 103.3962,221.128031 106.7282,221.128031 L108.7852,221.128031 C112.107,221.128031 114.4062,218.488431 113.9124,215.179231 L86.9404,34.4060306 C87.198,23.0880306 96.4706,13.9540306 107.8334,13.9540306 L323.8,13.9540306 L323.8,279.101831 L211.776,279.101831 C200.1822,278.643031 200.3224,293.659631 211.776,293.056831 L330.766,293.056831 C334.612,293.056831 337.734,289.930831 337.734,286.079231 L337.734,6.97803057 C337.734,3.12603057 334.612,3.05741071e-05 330.766,3.05741071e-05 L107.8334,3.05741071e-05 Z M163.467773,88.2644649 L163.463899,113.801285 L168.140777,113.227036 C172.251903,112.722253 177.335071,111.715265 180.5113,107.649877 C183.058901,104.389098 183.264768,100.764995 182.852606,97.4082041 C182.533064,94.8057481 181.776152,91.7592846 178.787983,89.5610656 C175.50338,87.1312466 171.576875,87.2687924 168.748118,87.61612 L163.467773,88.2644649 Z M167.30686,91.4684801 L168.966397,91.2647146 C170.739085,91.0470559 173.921185,90.7711993 176.254944,92.6286305 C177.614705,93.7250903 178.732266,95.6552812 179.070332,98.4086042 C179.514911,102.029413 178.33175,104.242097 177.7501,105.117507 C175.522758,108.492106 171.50559,109.138493 168.978567,109.448773 L167.31903,109.652538 L167.30686,91.4684801 Z M187.150021,110.892995 L190.846263,110.439153 L190.855049,102.091863 C190.870948,101.285918 190.950392,99.4384655 191.772904,98.342054 C192.236104,97.7491849 192.977215,97.2370489 194.108717,97.0981179 C194.863052,97.0054972 195.527392,97.1153533 196.139454,97.4230553 L197.537696,93.8439746 C196.402899,93.3324587 195.483804,93.3304533 194.729469,93.423074 C193.975134,93.5156947 193.154627,93.693011 192.3758,94.2097781 C191.526171,94.773524 191.006061,95.5265221 190.845264,95.7759778 L190.857868,94.319586 L187.161626,94.7734274 L187.150021,110.892995 Z M210.895153,102.540936 C210.601345,103.266148 210.048149,104.061494 209.457906,104.555106 C208.79686,105.095696 207.886358,105.475489 207.018873,105.582003 C205.77422,105.734827 204.846531,105.351023 204.291379,104.883192 C203.439792,104.183761 202.867453,102.952333 202.728522,101.82083 L214.081265,100.426889 C214.144142,99.6917463 214.103131,99.0459305 214.042928,98.5556127 C213.760435,96.2548907 212.760655,94.3485234 211.400894,93.2520637 C209.740069,91.8862871 207.854899,91.8114738 206.383946,91.9920842 C204.00779,92.2838394 202.223836,93.3451597 200.86269,95.0437023 C199.336116,96.9539839 198.609519,99.4551773 198.942953,102.170784 C199.248602,104.660089 200.389987,106.472499 201.787464,107.564328 C203.401311,108.859302 205.163399,109.17894 207.12467,108.938126 C209.236808,108.678788 210.595948,107.89934 211.436316,107.260161 C212.413658,106.489307 213.382406,105.336655 214.012371,103.919317 L210.895153,102.540936 Z M202.92379,98.7340245 C203.132904,97.9426411 203.559055,97.0480381 204.135406,96.4412759 C204.84873,95.7028394 205.754601,95.2853295 206.697519,95.1695536 C207.602722,95.0584087 208.507255,95.253629 209.104755,95.7545458 C209.61756,96.1892912 210.105872,97.0481829 210.316274,97.8263416 L202.92379,98.7340245 Z M229.819895,91.4116339 C229.203871,90.7598501 228.497851,90.3105431 227.814987,90.0498199 C226.849582,89.670647 225.883508,89.5978391 224.827439,89.7275081 C222.60215,90.0007391 220.714975,90.845021 219.29229,92.6659759 C217.604918,94.8257132 217.113215,97.680919 217.409601,100.094791 C217.705987,102.508663 218.908244,104.505026 220.30109,105.559138 C221.185763,106.216221 222.701689,107.025508 225.040128,106.738384 C226.058481,106.613346 227.12448,106.252746 227.874853,105.816043 C228.625225,105.379341 229.333918,104.603187 229.792487,103.972602 L229.807669,105.655294 L233.503911,105.201452 L233.515517,89.0818853 L229.819275,89.5357268 L229.819895,91.4116339 Z M225.423553,93.0234272 C226.781357,92.85671 227.746762,93.2358829 228.381979,93.7321687 C229.271283,94.4269688 229.876708,95.6160492 230.038794,96.9361356 C230.228666,98.4825225 229.871312,100.249242 228.949543,101.472697 C228.354,102.234957 227.310487,103.090506 225.650949,103.294272 C224.519447,103.433203 223.60102,103.124832 222.834129,102.491573 C222.02489,101.825227 221.353293,100.720843 221.181945,99.3253226 C220.964286,97.5526352 221.510225,95.7627606 222.40817,94.657087 C222.975259,93.9748914 223.914883,93.2086686 225.423553,93.0234272 Z M238.180789,104.627204 L241.87703,104.173363 L241.890448,95.8637892 C241.879897,94.2188136 241.963304,92.715443 242.757362,91.699096 C243.187476,91.1485748 243.791613,90.7681131 244.621381,90.6662304 C245.337999,90.5782407 245.898451,90.7774235 246.279581,91.075195 C246.957146,91.6045665 247.110639,92.5428543 247.170842,93.0331721 C247.217152,93.4103396 247.239639,93.9052884 247.227703,95.0553152 L247.232809,103.515756 L250.929051,103.061914 L250.942469,94.7523408 C250.94648,92.9141504 251.114582,91.4769512 251.984073,90.4513422 C252.555792,89.8068633 253.145367,89.6196165 253.635685,89.559413 C254.239153,89.4853164 254.950472,89.6659751 255.336233,90.0014633 C255.844407,90.3984919 256.130242,91.1673886 256.236756,92.0348739 C256.324746,92.7514922 256.275761,93.599785 256.283687,94.2879486 L256.28483,102.404307 L259.981072,101.950466 L259.979928,93.8341072 C259.997164,92.4154321 259.989907,91.4209034 259.888024,90.5911348 C259.77688,89.6859327 259.455333,88.0025719 257.987053,86.957722 C257.060033,86.267553 255.792893,85.9254283 254.095639,86.1338249 C253.001854,86.2681249 252.270674,86.5493293 251.501109,87.1415299 C250.698458,87.7760783 250.206803,88.4490119 249.89447,89.0233568 C249.518639,88.456937 248.987311,87.8713246 248.135055,87.4782585 C247.320517,87.0805614 246.627722,87.0507698 245.797954,87.1526526 C244.892752,87.2637974 244.04379,87.5211782 243.269594,88.075662 C242.707805,88.4892094 242.239974,89.0443617 241.880662,89.5479041 L241.888636,88.0537955 L238.192394,88.507637 L238.180789,104.627204 Z M155.243076,119.499626 L155.239202,145.036445 L159.91608,144.462197 C164.027206,143.957414 169.110374,142.950426 172.286603,138.885038 C174.834203,135.624258 175.040071,132.000156 174.627909,128.643365 C174.308367,126.040909 173.551455,122.994445 170.563286,120.796226 C167.278683,118.366407 163.352178,118.503953 160.523421,118.851281 L155.243076,119.499626 Z M159.082163,122.703641 L160.7417,122.499875 C162.514387,122.282217 165.696488,122.00636 168.030247,123.863791 C169.390008,124.960251 170.507569,126.890442 170.845634,129.643765 C171.290214,133.264573 170.107053,135.477257 169.525403,136.352668 C167.298061,139.727266 163.280892,140.373654 160.75387,140.683933 L159.094333,140.887699 L159.082163,122.703641 Z M190.148494,135.3136 C189.854685,136.038812 189.30149,136.834158 188.711247,137.32777 C188.050201,137.868361 187.139699,138.248154 186.272214,138.354667 C185.027561,138.507492 184.099872,138.123688 183.54472,137.655857 C182.693133,136.956425 182.120794,135.724997 181.981862,134.593495 L193.334605,133.199553 C193.397483,132.464411 193.356472,131.818595 193.296268,131.328277 C193.013775,129.027555 192.013995,127.121188 190.654235,126.024728 C188.993409,124.658951 187.10824,124.584138 185.637287,124.764748 C183.261131,125.056504 181.477176,126.117824 180.116031,127.816367 C178.589457,129.726648 177.862859,132.227842 178.196294,134.943448 C178.501942,137.432754 179.643327,139.245163 181.040804,140.336992 C182.654651,141.631966 184.41674,141.951604 186.378011,141.71079 C188.490149,141.451452 189.849289,140.672005 190.689657,140.032825 C191.666998,139.261972 192.635746,138.109319 193.265712,136.691981 L190.148494,135.3136 Z M182.177131,131.506689 C182.386244,130.715305 182.812396,129.820702 183.388746,129.21394 C184.102071,128.475504 185.007941,128.057994 185.95086,127.942218 C186.856062,127.831073 187.760596,128.026293 188.358096,128.52721 C188.8709,128.961955 189.359213,129.820847 189.569615,130.599006 L182.177131,131.506689 Z M197.387299,111.951272 L197.368816,139.863579 L201.065058,139.409738 L201.083541,111.497431 L197.387299,111.951272 Z M205.753541,122.715922 L205.741936,138.835489 L209.438177,138.381648 L209.449783,122.262081 L205.753541,122.715922 Z M205.220352,116.502588 C205.294448,117.106056 205.6233,117.601674 205.999799,117.861728 C206.338581,118.126414 206.8236,118.334859 207.540218,118.246869 C208.33227,118.149618 209.044926,117.717546 209.437323,117.171656 C209.862807,116.583418 210.029572,115.758949 209.955476,115.155481 C209.881379,114.552013 209.557158,114.094112 209.176028,113.796341 C208.794898,113.498569 208.239077,113.337103 207.597892,113.415831 C206.805841,113.513082 206.168618,113.935892 205.77159,114.444065 C205.30839,115.036934 205.132362,115.78597 205.220352,116.502588 Z M212.052239,121.942539 L220.25095,138.202567 L228.496744,119.923408 L224.272467,120.442084 L220.179003,130.133188 L216.125648,121.442387 L212.052239,121.942539 Z M242.273048,128.91351 C241.979239,129.638722 241.426044,130.434067 240.8358,130.927679 C240.174754,131.46827 239.264253,131.848063 238.396767,131.954577 C237.152115,132.107401 236.224426,131.723597 235.669274,131.255766 C234.817687,130.556335 234.245347,129.324907 234.106416,128.193404 L245.459159,126.799463 C245.522036,126.06432 245.481026,125.418504 245.420822,124.928186 C245.138329,122.627464 244.138549,120.721097 242.778789,119.624637 C241.117963,118.258861 239.232794,118.184048 237.76184,118.364658 C235.385685,118.656413 233.60173,119.717734 232.240584,121.416276 C230.71401,123.326558 229.987413,125.827751 230.320848,128.543357 C230.626496,131.032663 231.767881,132.845073 233.165358,133.936901 C234.779205,135.231875 236.541293,135.551513 238.502565,135.3107 C240.614703,135.051362 241.973843,134.271914 242.81421,133.632735 C243.791552,132.861881 244.7603,131.709229 245.390265,130.291891 L242.273048,128.91351 Z M234.301685,125.106598 C234.510798,124.315215 234.93695,123.420612 235.5133,122.81385 C236.226624,122.075413 237.132495,121.657903 238.075414,121.542127 C238.980616,121.430983 239.885149,121.626203 240.48265,122.12712 C240.995454,122.561865 241.483766,123.420757 241.694168,124.198915 L234.301685,125.106598 Z M249.49337,133.463489 L253.189612,133.009647 L253.198398,124.662357 C253.214297,123.856412 253.293741,122.008959 254.116253,120.912548 C254.579453,120.319679 255.320564,119.807543 256.452066,119.668612 C257.206401,119.575991 257.870741,119.685847 258.482803,119.993549 L259.881045,116.414469 C258.746248,115.902953 257.827153,115.900947 257.072818,115.993568 C256.318483,116.086189 255.497977,116.263505 254.719149,116.780272 C253.86952,117.344018 253.34941,118.097016 253.188613,118.346472 L253.201217,116.89008 L249.504975,117.343921 L249.49337,133.463489 Z M260.850551,140.836353 L264.999394,140.326939 L277.641674,113.889169 L273.417397,114.407845 L268.97059,124.027478 L264.289943,115.528556 L259.914799,116.065756 L266.972174,128.331102 L260.850551,140.836353 Z" class="truckBody"></path>
                <g transform="translate(162, 286)">
                    <path d="M48,-7.42862817 C44.6063603,-30.8957615 24.3075379,-49 -0.221331051,-49 C-27.1191862,-49 -49,-27.2443697 -49,-0.5 C-49,26.2441711 -27.1191862,48 -0.221331051,48 C24.3075379,48 44.6063603,29.8955629 48,6.42862817 L48,-7.42862817 Z M7.08047558,23.5474318 C7.08007548,26.0114162 8.41860667,28.2837552 10.5819419,29.4914194 C12.7450771,30.6990836 15.3965332,30.6540022 17.5168578,29.3736518 C27.7353861,23.2876678 34.6206897,12.17819 34.6206897,-0.5 C34.6206897,-19.602185 18.9906224,-35.1429423 -0.221331051,-35.1429423 C-19.4330845,-35.1429423 -35.0631517,-19.602185 -35.0631517,-0.5 C-35.0631517,12.6893769 -27.611508,24.1811526 -16.6742019,30.0314028 C-14.5670805,31.184453 -12.0030461,31.1467197 -9.93133353,29.931906 C-7.85962094,28.717291 -6.58830639,26.5063182 -6.58830639,24.1178004 C-6.5228902,23.9857338 -6.5228902,23.8548589 -6.5228902,23.7255727 C-6.52309025,21.2210745 -7.90683262,18.9183503 -10.1263818,17.727964 C-16.6840043,14.2628555 -21.1265035,7.38685538 -21.1265035,-0.5 C-21.1265035,-11.9598016 -11.7469828,-21.2856859 -0.221331051,-21.2856859 C11.3045207,-21.2856859 20.6838414,-11.9598016 20.6838414,-0.5 C20.6838414,7.07962688 16.5806261,13.7258511 10.4671135,17.3575819 C8.40400305,18.5759703 7.13969023,20.7829711 7.13969023,23.1663254 C7.08047558,23.2918383 7.08047558,23.4191385 7.08047558,23.5474318 Z M-7.18965517,-0.5 C-7.18965517,-4.31761693 -4.06088104,-7.42862817 -0.221331051,-7.42862817 C3.61841899,-7.42862817 6.74719312,-4.31761693 6.74719312,-0.5 C6.74719312,3.31761693 3.61841899,6.42862817 -0.221331051,6.42862817 C-4.06088104,6.42862817 -7.18965517,3.31761693 -7.18965517,-0.5 Z" class="wheelBack wheel"></path>
                </g>
                <g transform="translate(399, 286)">
                    <path d="M-49,6.42862817 C-45.6063603,29.8957615 -25.3075379,48 -0.778668949,48 C26.1191862,48 48,26.2443697 48,-0.5 C48,-27.2441711 26.1191862,-49 -0.778668949,-49 C-25.3075379,-49 -45.6063603,-30.8955629 -49,-7.42862817 L-49,6.42862817 Z M-8.08047558,-24.5474318 C-8.08007548,-27.0114162 -9.41860667,-29.2837552 -11.5819419,-30.4914194 C-13.7450771,-31.6990836 -16.3965332,-31.6540022 -18.5168578,-30.3736518 C-28.7353861,-24.2876678 -35.6206897,-13.17819 -35.6206897,-0.5 C-35.6206897,18.602185 -19.9906224,34.1429423 -0.778668949,34.1429423 C18.4330845,34.1429423 34.0631517,18.602185 34.0631517,-0.5 C34.0631517,-13.6893769 26.611508,-25.1811526 15.6742019,-31.0314028 C13.5670805,-32.184453 11.0030461,-32.1467197 8.93133353,-30.931906 C6.85962094,-29.717291 5.58830639,-27.5063182 5.58830639,-25.1178004 C5.5228902,-24.9857338 5.5228902,-24.8548589 5.5228902,-24.7255727 C5.52309025,-22.2210745 6.90683262,-19.9183503 9.12638179,-18.727964 C15.6840043,-15.2628555 20.1265035,-8.38685538 20.1265035,-0.5 C20.1265035,10.9598016 10.7469828,20.2856859 -0.778668949,20.2856859 C-12.3045207,20.2856859 -21.6838414,10.9598016 -21.6838414,-0.5 C-21.6838414,-8.07962688 -17.5806261,-14.7258511 -11.4671135,-18.3575819 C-9.40400305,-19.5759703 -8.13969023,-21.7829711 -8.13969023,-24.1663254 C-8.08047558,-24.2918383 -8.08047558,-24.4191385 -8.08047558,-24.5474318 Z M6.18965517,-0.5 C6.18965517,3.31761693 3.06088104,6.42862817 -0.778668949,6.42862817 C-4.61841899,6.42862817 -7.74719312,3.31761693 -7.74719312,-0.5 C-7.74719312,-4.31761693 -4.61841899,-7.42862817 -0.778668949,-7.42862817 C3.06088104,-7.42862817 6.18965517,-4.31761693 6.18965517,-0.5 Z" class="wheelFront wheel"></path>
                </g>
            </g>
        </g>
    </g>
</svg>