<svg width="658px" height="292px" viewBox="0 0 658 292" version="1.1" xmlns="http://www.w3.org/2000/svg" xmlns:xlink="http://www.w3.org/1999/xlink">
    <g id="Page-1" stroke="none" stroke-width="1" fill="none" fill-rule="evenodd">
        <g id="stars" fill="#21205F">
            <path d="M14.6598063,168.080166 L6.06351623,177.999556 L9.91733164,165.450442 L-0.000906264882,156.850401 L12.5456372,160.707182 L21.1419273,150.787792 L17.2881119,163.336905 L27.2063498,171.936946 L14.6598063,168.080166 Z M483.536726,253.610117 L466.579443,253.339975 L482.200847,246.732125 L482.475658,229.772867 L489.078439,245.39419 L506.035722,245.664331 L490.414318,252.272182 L490.139507,269.23144 L483.536726,253.610117 Z M445.25309,23.8396251 L428.295806,23.5694836 L443.91721,16.9616334 L444.192021,0.00237552406 L450.794802,15.6236982 L467.752086,15.8938396 L452.130682,22.5016898 L451.855871,39.4609477 L445.25309,23.8396251 Z M315.799559,192.45251 L294.303855,200.163901 L312.714828,186.648884 L305.008941,165.149141 L318.517532,183.562419 L340.013236,175.851028 L321.602262,189.366045 L329.30815,210.865788 L315.799559,192.45251 Z M578.280648,129.285694 L565.593569,139.462689 L574.857726,126.092811 L564.6835,113.401736 L578.049586,122.668934 L590.736665,112.491939 L581.472508,125.861818 L591.646733,138.552893 L578.280648,129.285694 Z" class="stars2"></path>
            <path d="M414.494311,133.319005 L409.173787,145.318277 L409.190203,132.190754 L397.190937,126.866306 L410.316869,126.886309 L415.637393,114.887037 L415.620977,128.01456 L427.620244,133.339008 L414.494311,133.319005 Z M128.453675,272.273133 L116.601311,291.793694 L122.404049,269.704152 L102.885223,257.845186 L124.971221,263.653758 L136.823585,244.133197 L131.020847,266.222739 L150.539673,278.081706 L128.453675,272.273133 Z M642.884284,280.072579 L630.197205,290.249574 L639.461362,276.879696 L629.287137,264.188621 L642.653222,273.45582 L655.340301,263.278825 L646.076144,276.648703 L656.250369,289.339778 L642.884284,280.072579 Z M204.012104,93.058776 L203.906477,115.895581 L197.503439,93.9725172 L174.664721,93.8603374 L196.587753,87.4641261 L196.693379,64.6273207 L203.096417,86.5503849 L225.935136,86.6625647 L204.012104,93.058776 Z" class="stars1"></path>
        </g>
    </g>
</svg>